# xmcd
#
# Track frame offsets:
#	150
#	16972
#	31047
#	43830
#	56635
#	71462
#	85850
#	101220
#	116807
#	130175
#	143810
#	157437
#	171037
#	187570
#	200745
# Disc length: 2943 seconds
# Revision: 1
# Processed by: cddbd v1.5.1PL2 Copyright (c) Steve Scherf et al.
#
# Submitted via: libkcddb 0.21
#
DISCID=d10b7d0f
DTITLE=Lotta Engberg - Stora Rubriker
DYEAR=1900
DGENRE=Misc
TTITLE0=Tusen Skäl Att Stanna
TTITLE1=Stora Rubriker
TTITLE2=Hey Paula
TTITLE3=Allt Jag Vill Säga
TTITLE4=Four Brothers
TTITLE5=Marias Sommar
TTITLE6=Sugar Baby Love
TTITLE7=Lyckliga Gatan
TTITLE8=Stadens Postiljon
TTITLE9=Sommarvind
TTITLE10=Ramblin' Rose
TTITLE11=Den Som Värmer Ditt Hjärta
TTITLE12=Leva I Kärlekens Namn
TTITLE13=Mannen I Mitt Liv
TTITLE14=Smoke Gets In Your Eyes
EXTD=
EXTT0=
EXTT1=
EXTT2=
EXTT3=
EXTT4=
EXTT5=
EXTT6=
EXTT7=
EXTT8=
EXTT9=
EXTT10=
EXTT11=
EXTT12=
EXTT13=
EXTT14=
PLAYORDER=
